<?xml version="1.0" encoding="utf-8"?>
<!-- Generator: Adobe Illustrator 21.0.0, SVG Export Plug-In . SVG Version: 6.00 Build 0)  -->
<svg version="1.1" id="Layer_1" xmlns="http://www.w3.org/2000/svg" xmlns:xlink="http://www.w3.org/1999/xlink" x="0px" y="0px"
	 viewBox="0 0 3344.9 2381.1" style="enable-background:new 0 0 3344.9 2381.1;" xml:space="preserve">
<style type="text/css">
	.st0{clip-path:url(#SVGID_2_);fill:#00CBBA;}
	.st1{clip-path:url(#SVGID_2_);fill:#FEFEFE;}
</style>
<g>
	<g>
		<defs>
			<path id="SVGID_1_" d="M1695.6,393.1c456.7,0,827,368,827,822c0,454-370.2,822-827,822s-827-368-827-822
				C868.7,761.1,1238.9,393.1,1695.6,393.1"/>
		</defs>
		<clipPath id="SVGID_2_">
			<use xlink:href="#SVGID_1_"  style="overflow:visible;"/>
		</clipPath>
		<path class="st0" d="M1297.4,980.3c79.1,0,158.4-2,237.8-2c49.9,0,97.6,11.2,137.9,42.7c52.9,41.3,71.8,119.4,44.3,185.9
			c-22.5,54.9-62.2,92.6-118.8,111.8c-9.9,3.3-12.6,5.6-6.6,15.9c42.3,71.8,90,139.9,145.9,201.8c25.8,28.8,55.2,52.6,95.6,57.2
			c10.9,1.3,6.3,9.6,7.3,15.2c1.7,9.6-2,15.2-12.2,17.2c-13.1,2.5-26,3.8-38.8,3.8c-30.9,0-60.7-7.5-89.3-23
			c-29.1-15.5-48.6-41-68.1-66.5c-46.3-61.2-87-126-124.4-192.8c-5.4-9.8-11.4-13.3-21.7-13.3c-0.5,0-1,0-1.5,0
			c-1.8,0-3.6,0.1-5.4,0.1c-15.1,0-30.5-1.1-45.9-2c-1.1-0.1-2.2-0.1-3.2-0.1c-5.6,0-9.3,1.3-9.1,10c1.7,64.5-3,129,2.6,193.2
			c3,33.4,13.2,43.7,46.6,49c10.9,1.7,21.8,4.6,32.7,4.6c0.2,0,0.5,0,0.7,0c18.7,0,11.9,13.7,12.9,22.8c0.8,8.2-2.6,10-6.7,10
			c-3,0-6.5-1-9.2-1.1c-38.3-1.4-76.6-2.1-114.9-2.1c-36.1,0-72.1,0.7-108.1,2.1c-2.6,0.1-6,1-9,1c-4.3,0-7.8-1.8-7.2-9.9
			c0.7-9.9-5-23.5,13.6-23.5c3.6,0,7.6-1.3,11.2-2c41.3-6.9,54.2-20.2,54.9-62.5c0.7-73.4,0-147.9,0-222.3c0-73.4,0.3-146.5-0.3-220
			c0-10.3-2-20.8-4.3-31.1c-4.3-17.5-15.9-28.4-34.1-32.1c-9.6-2-19.5-4-29.1-5.3c-9.3-1-12.2-4.6-12.6-14.6
			c-0.7-15.2,3.3-18.2,19.2-18.2C1286.1,980.3,1291.8,980.3,1297.4,980.3 M1926.7,1124.5c-15,0-29.8-1.8-44.2-7
			c-50-17.5-71.1-56.2-76.7-105.5c-3.3-21.5-4.6-43.7-3.6-61.2c0-31.1,0.3-57.6,5.3-83.7c11.5-62.1,56.9-98.7,119-98.7
			c2.4,0,4.9,0.1,7.3,0.2c45.6,2,81.7,19.2,105.9,59.2c6.6,11.2,6,18.2-7.6,21.5c-1.7,0.3-3,1.3-4.6,2c-10,4.2-15.8,6.6-20.4,6.6
			c-6.6,0-10.5-5.1-20.3-17.5c-14.7-18.7-33.2-27.1-54.2-27.1c-6.8,0-13.9,0.9-21.2,2.6c-28.1,6.6-49,32.1-52.6,65.2
			c-4.6,43.3-4.6,87,0,130.3c3,27.5,14.9,49.6,42.7,59.5c10.3,3.7,20.6,5.6,30.5,5.6c16.2,0,31.6-5.2,45.5-16.9
			c23.8-19.5,24.1-48,25.5-75.8c0.3-7.6-6.3-6.3-10.9-6.6c-9.9,0-19.8-0.1-29.8-0.1c-5,0-9.9,0-14.9,0.1c-0.4,0-0.8,0-1.2,0
			c-8.3,0-11.4-3.4-11.7-12.3c-1.3-33.1-1.6-33.4,29.2-33.4c0.6,0,1.2,0,1.9,0c17.2,0,34.6,0.1,51.8,0.1c8.7,0,17.3,0,25.9-0.1
			c8.6,0,11.9,2.6,11.9,11.2c-0.7,29.8,1.3,59.5-4.6,89c-10.6,50.9-47.6,86-99.6,91.3C1942.9,1124,1934.8,1124.5,1926.7,1124.5
			 M1695.6,393.1c-431.9,0-786.5,329.2-823.7,748.9c0,48.7,0,97.4,0,146.1c37.2,419.7,391.8,748.9,823.7,748.9
			c456.7,0,827-368,827-822C2522.6,761.1,2152.4,393.1,1695.6,393.1"/>
		<path class="st1" d="M1490.5,1287.5c-18.7,0-37.3-1.1-55.8-1.6c-9.9-0.3-13.2-4.3-12.9-14.2c0.3-38.4,0-77.1,0-115.4
			c0-38.7,0.3-77.1-0.3-115.8c0-9.6,2.6-13.9,12.9-13.9c18.1-0.6,36.2-1.5,54.2-1.5c14.3,0,28.7,0.6,43,2.5
			c75.8,10.3,115.8,61.2,109.2,137.9c-6,67.5-52.9,114.5-120.4,120.7C1510.3,1287.1,1500.4,1287.5,1490.5,1287.5 M1535.2,978.3
			c-79.4,0-158.7,2-237.8,2c-5.6,0-11.3,0-16.9,0c-15.9,0-19.8,3-19.2,18.2c0.3,9.9,3.3,13.6,12.6,14.6c9.6,1.3,19.5,3.3,29.1,5.3
			c18.2,3.6,29.8,14.6,34.1,32.1c2.3,10.3,4.3,20.8,4.3,31.1c0.7,73.4,0.3,146.5,0.3,220c0,74.4,0.7,148.9,0,222.3
			c-0.7,42.3-13.6,55.6-54.9,62.5c-3.6,0.7-7.6,2-11.2,2c-18.5,0-12.9,13.6-13.6,23.5c-0.6,8.2,3,9.9,7.2,9.9c3,0,6.4-0.9,9-1
			c36-1.4,72-2.1,108.1-2.1c38.3,0,76.6,0.7,114.9,2.1c2.7,0.1,6.1,1.1,9.2,1.1c4.2,0,7.5-1.8,6.7-10c-1-9.2,5.8-22.8-12.9-22.8
			c-0.2,0-0.4,0-0.7,0c-10.9,0-21.8-3-32.7-4.6c-33.4-5.3-43.7-15.5-46.6-49c-5.6-64.2-1-128.7-2.6-193.2c-0.3-8.7,3.5-10,9.1-10
			c1,0,2.1,0,3.2,0.1c15.4,0.9,30.7,2,45.9,2c1.8,0,3.6,0,5.4-0.1c0.5,0,1,0,1.5,0c10.3,0,16.3,3.5,21.7,13.3
			c37.4,66.8,78.1,131.7,124.4,192.8c19.5,25.5,39,50.9,68.1,66.5c28.6,15.5,58.3,23,89.3,23c12.7,0,25.6-1.3,38.8-3.8
			c10.3-2,13.9-7.6,12.2-17.2c-1-5.6,3.6-13.9-7.3-15.2c-40.4-4.6-69.8-28.4-95.6-57.2c-55.9-61.9-103.5-130-145.9-201.8
			c-6-10.3-3.3-12.6,6.6-15.9c56.6-19.2,96.3-56.9,118.8-111.8c27.5-66.5,8.6-144.6-44.3-185.9
			C1632.8,989.5,1585.2,978.3,1535.2,978.3"/>
		<path class="st1" d="M1926.5,768.4c-62.1,0-107.6,36.7-119,98.7c-5,26.1-5.3,52.6-5.3,83.7c-1,17.5,0.3,39.7,3.6,61.2
			c5.6,49.3,26.8,88,76.7,105.5c14.4,5.2,29.2,7,44.2,7c8.1,0,16.2-0.5,24.3-1.3c51.9-5.3,89-40.4,99.6-91.3c6-29.4,4-59.2,4.6-89
			c0-8.6-3.3-11.2-11.9-11.2c-8.6,0.1-17.2,0.1-25.9,0.1c-17.3,0-34.6-0.1-51.8-0.1c-0.6,0-1.2,0-1.9,0c-30.9,0-30.5,0.3-29.2,33.4
			c0.3,8.8,3.3,12.3,11.7,12.3c0.4,0,0.8,0,1.2,0c5-0.1,9.9-0.1,14.9-0.1c9.9,0,19.8,0.1,29.8,0.1c4.6,0.3,11.2-1,10.9,6.6
			c-1.3,27.8-1.7,56.2-25.5,75.8c-13.9,11.7-29.4,16.9-45.5,16.9c-10,0-20.2-2-30.5-5.6c-27.8-9.9-39.7-32.1-42.7-59.5
			c-4.6-43.3-4.6-87,0-130.3c3.6-33.1,24.5-58.5,52.6-65.2c7.3-1.7,14.4-2.6,21.2-2.6c21,0,39.5,8.4,54.2,27.1
			c9.8,12.4,13.7,17.5,20.3,17.5c4.6,0,10.4-2.4,20.4-6.6c1.7-0.7,3-1.7,4.6-2c13.6-3.3,14.2-10.3,7.6-21.5
			c-24.1-40-60.2-57.2-105.9-59.2C1931.3,768.4,1928.9,768.4,1926.5,768.4"/>
		<path class="st0" d="M1488.6,1025c-18.1,0-36.2,1-54.2,1.5c-10.3,0-12.9,4.3-12.9,13.9c0.7,38.7,0.3,77.1,0.3,115.8
			c0,38.4,0.3,77.1,0,115.4c-0.3,9.9,3,13.9,12.9,14.2c18.6,0.4,37.2,1.6,55.8,1.6c9.9,0,19.9-0.3,29.8-1.2
			c67.5-6.3,114.5-53.3,120.4-120.7c6.6-76.7-33.4-127.7-109.2-137.9C1517.2,1025.6,1502.9,1025,1488.6,1025"/>
	</g>
</g>
</svg>
