<?xml version="1.0" encoding="utf-8"?>
<!-- Generator: Adobe Illustrator 21.0.0, SVG Export Plug-In . SVG Version: 6.00 Build 0)  -->
<svg version="1.1" id="Layer_1" xmlns="http://www.w3.org/2000/svg" xmlns:xlink="http://www.w3.org/1999/xlink" x="0px" y="0px"
	 viewBox="0 0 3344.9 2381.1" style="enable-background:new 0 0 3344.9 2381.1;" xml:space="preserve">
<style type="text/css">
	.st0{clip-path:url(#SVGID_2_);}
	.st1{fill:#00CBBA;}
	.st2{fill:#FEFEFE;}
</style>
<g>
	<defs>
		<ellipse id="SVGID_1_" cx="1672" cy="1191.6" rx="250" ry="248.5"/>
	</defs>
	<clipPath id="SVGID_2_">
		<use xlink:href="#SVGID_1_"  style="overflow:visible;"/>
	</clipPath>
	<g class="st0">
		<g>
			<path class="st1" d="M1673,1441.1c-82,0-164,0-246,0.1c-3.4,0-4.1-0.7-4.1-4.1c0.1-164,0.1-328,0-492c0-3.4,0.7-4.1,4.1-4.1
				c164,0.1,328,0.1,492,0c3.4,0,4.1,0.7,4.1,4.1c-0.1,164-0.1,328,0,492c0,3.4-0.7,4.1-4.1,4.1
				C1837,1441.1,1755,1441.1,1673,1441.1z"/>
			<path class="st2" d="M1565,1217.7c0-22.2,0.1-44.3-0.1-66.5c0-3.1-0.6-6.3-1.3-9.4c-1.3-5.3-4.8-8.6-10.3-9.7
				c-2.9-0.6-5.9-1.2-8.8-1.6c-2.8-0.3-3.7-1.4-3.8-4.4c-0.2-4.6,1-5.5,5.8-5.5c25.6,0.1,51.3-0.6,77-0.6c15.1,0,29.5,3.4,41.7,12.9
				c16,12.5,21.7,36.1,13.4,56.2c-6.8,16.6-18.8,28-35.9,33.8c-3,1-3.8,1.7-2,4.8c12.8,21.7,27.2,42.3,44.1,61
				c7.8,8.7,16.7,15.9,28.9,17.3c3.3,0.4,1.9,2.9,2.2,4.6c0.5,2.9-0.6,4.6-3.7,5.2c-13.6,2.6-26.5,0.8-38.7-5.8
				c-8.8-4.7-14.7-12.4-20.6-20.1c-14-18.5-26.3-38.1-37.6-58.3c-1.7-3.1-3.6-4.1-7-4c-5.1,0.1-10.3-0.3-15.5-0.6
				c-2.2-0.1-3.8-0.1-3.7,3c0.5,19.5-0.9,39,0.8,58.4c0.9,10.1,4,13.2,14.1,14.8c3.3,0.5,6.6,1.4,9.9,1.4c5.9-0.1,3.8,4.1,4.1,6.9
				c0.4,4.3-2.9,2.8-4.8,2.7c-22.5-0.8-45-0.9-67.4,0c-1.9,0.1-5.2,1.5-4.9-2.7c0.2-3-1.5-7.1,4.1-7.1c1.1,0,2.3-0.4,3.4-0.6
				c12.5-2.1,16.4-6.1,16.6-18.9C1565.2,1262.7,1565,1240.2,1565,1217.7C1565,1217.7,1565,1217.7,1565,1217.7z"/>
			<path class="st2" d="M1704.2,1111.7c0-9.4,0.1-17.4,1.6-25.3c3.6-19.5,18.3-30.7,38.2-29.8c13.8,0.6,24.7,5.8,32,17.9
				c2,3.4,1.8,5.5-2.3,6.5c-0.5,0.1-0.9,0.4-1.4,0.6c-7.4,3.1-7.3,3-12.3-3.3c-5.9-7.5-13.8-9.5-22.8-7.4c-8.5,2-14.8,9.7-15.9,19.7
				c-1.4,13.1-1.4,26.3,0,39.4c0.9,8.3,4.5,15,12.9,18c8.2,2.9,16.2,2.3,23-3.4c7.2-5.9,7.3-14.5,7.7-22.9c0.1-2.3-1.9-1.9-3.3-2
				c-4.5,0-9-0.1-13.5,0c-2.8,0.1-3.8-0.9-3.9-3.7c-0.4-10.2-0.5-10.1,9.4-10.1c7.8,0,15.7,0.1,23.5,0c2.6,0,3.6,0.8,3.6,3.4
				c-0.2,9,0.4,18-1.4,26.9c-3.2,15.4-14.4,26-30.1,27.6c-7,0.7-14,0.7-20.7-1.7c-15.1-5.3-21.5-17-23.2-31.9
				C1704.3,1123.7,1703.9,1117,1704.2,1111.7z"/>
			<path class="st1" d="M1589.2,1173.8c0-11.7,0.1-23.3-0.1-35c0-2.9,0.8-4.2,3.9-4.2c9.8-0.3,19.6-1,29.4,0.3
				c22.9,3.1,35,18.5,33,41.7c-1.8,20.4-16,34.6-36.4,36.5c-8.7,0.8-17.3,0.1-25.9-0.1c-3-0.1-4-1.3-3.9-4.3
				C1589.3,1197.1,1589.2,1185.4,1589.2,1173.8z"/>
		</g>
	</g>
</g>
</svg>
