<?xml version="1.0" encoding="utf-8"?>
<!-- Generator: Adobe Illustrator 21.0.0, SVG Export Plug-In . SVG Version: 6.00 Build 0)  -->
<svg version="1.1" id="Layer_1" xmlns="http://www.w3.org/2000/svg" xmlns:xlink="http://www.w3.org/1999/xlink" x="0px" y="0px"
	 viewBox="0 0 980 985" style="enable-background:new 0 0 980 985;" xml:space="preserve">
<style type="text/css">
	.st0{fill:none;}
	.st1{fill:#FFFFFF;}
</style>
<rect id="backgroundrect" class="st0" width="980" height="985"/>
<g>
	<title>Layer 1</title>
	<g id="svg_1">
		<path id="svg_2" class="st1" d="M-17.6-15.3L-17.6-15.3L-17.6-15.3z"/>
		<path id="svg_3" class="st1" d="M489.6,5c-269,0-487,218-487,486.9s218,486.9,486.9,486.9s486.9-218,486.9-486.9S758.5,5,489.6,5z
			 M370.4,693.7h-98.6V376.5h98.6V693.7z M320.5,337.5c-31.1,0-51.3-22.1-51.3-49.4c0-27.9,20.7-49.3,52.5-49.3s51.3,21.4,51.9,49.3
			C373.7,315.5,353.5,337.5,320.5,337.5z M730.4,693.7h-98.6V517.9c0-40.9-14.3-68.8-50-68.8c-27.2,0-43.4,18.9-50.6,36.9
			c-2.6,6.4-3.2,15.5-3.2,24.7v182.9h-98.7V477.5c0-39.6-1.2-72.7-2.6-101.2h85.6l4.6,44h1.9c13-20.7,44.8-51.2,98-51.2
			c64.8,0,113.5,43.4,113.5,136.8L730.4,693.7L730.4,693.7L730.4,693.7z"/>
	</g>
</g>
</svg>
