<svg version="1.1" xmlns="http://www.w3.org/2000/svg" xmlns:xlink="http://www.w3.org/1999/xlink" enable-background="new 0 0 1000 1000" xml:space="preserve" width="980" height="985" style=""><rect id="backgroundrect" width="100%" height="100%" x="0" y="0" fill="none" stroke="none"/>
<metadata> Svg Vector Icons : http://www.onlinewebfonts.com/icon </metadata>

<g class="currentLayer" style=""><title>Layer 1</title><g id="svg_1" class=""><path d="M-17.64703941345215,-15.294098973274231 L-17.64703941345215,-15.294098973274231 L-17.64703941345215,-15.294098973274231 z" id="svg_2"/><path d="M489.5558166503906,4.994015574455261 C220.63685607910156,4.994015574455261 2.6410746574401855,222.98979461193085 2.6410746574401855,491.908770442009 s217.9957733154297,486.91473388671875 486.91473388671875,486.91473388671875 s486.91473388671875,-217.9957733154297 486.91473388671875,-486.91473388671875 S758.4747314453125,4.994015574455261 489.5558166503906,4.994015574455261 zM370.36309814453125,693.6740292310715 h-98.60023498535156 V376.4693783521652 h98.60023498535156 V693.6740292310715 zM320.454345703125,337.51616179943085 c-31.142255783081055,0 -51.32892608642578,-22.114042282104492 -51.32892608642578,-49.40155792236328 c0,-27.896156311035156 20.693876266479492,-49.30011749267578 52.54621505737305,-49.30011749267578 s51.32892608642578,21.403961181640625 51.93757247924805,49.30011749267578 C373.7106628417969,315.50358855724335 353.5239562988281,337.51616179943085 320.454345703125,337.51616179943085 zM730.375732421875,693.6740292310715 h-98.60023498535156 V517.8774594068527 c0,-40.880550384521484 -14.303121566772461,-68.7767105102539 -50.01020050048828,-68.7767105102539 c-27.186071395874023,0 -43.41656494140625,18.86794662475586 -50.61884689331055,36.92436981201172 c-2.6374547481536865,6.390756130218506 -3.246098279953003,15.520407676696777 -3.246098279953003,24.65005874633789 v182.89735412597656 h-98.70167541503906 v-216.06842041015625 c0,-39.561824798583984 -1.2172869443893433,-72.7328872680664 -2.6374547481536865,-101.2376937866211 h85.6158447265625 l4.564825534820557,44.025211334228516 h1.9273709058761597 c12.984393119812012,-20.693876266479492 44.836734771728516,-51.22748947143555 97.99159240722656,-51.22748947143555 c64.82052612304688,0 113.51200103759766,43.41656494140625 113.51200103759766,136.84332275390625 V693.6740292310715 L730.375732421875,693.6740292310715 z" id="svg_3"/></g></g></svg>