<svg enable-background="new 0 0 56.693 56.693" height="49" version="1.1" width="49" xml:space="preserve" xmlns="http://www.w3.org/2000/svg" xmlns:xlink="http://www.w3.org/1999/xlink" style=""><rect id="backgroundrect" width="100%" height="100%" x="0" y="0" fill="none" stroke="none"/><g class="currentLayer" style=""><title>Layer 1</title><path d="M24.625,0 c-13.600000381469727,0 -24.625,11.027000427246094 -24.625,24.625 c0,13.600000381469727 11.024999618530273,24.62299919128418 24.625,24.62299919128418 c13.600000381469727,0 24.62299919128418,-11.02299976348877 24.62299919128418,-24.62299919128418 C49.24800109863281,11.026999950408936 38.2239990234375,0 24.625,0 zM37.02899932861328,19.65999937057495 c0.013000000268220901,0.26600000262260437 0.017999999225139618,0.5329999923706055 0.017999999225139618,0.8029999732971191 c0,8.201000213623047 -6.242000102996826,17.6560001373291 -17.6560001373291,17.6560001373291 c-3.503999948501587,0 -6.767000198364258,-1.0269999504089355 -9.512999534606934,-2.7869999408721924 c0.4860000014305115,0.05700000002980232 0.9789999723434448,0.0860000029206276 1.4800000190734863,0.0860000029206276 c2.9079999923706055,0 5.584000110626221,-0.9919999837875366 7.706999778747559,-2.6559998989105225 c-2.7149999141693115,-0.050999999046325684 -5.00600004196167,-1.8459999561309814 -5.796000003814697,-4.310999870300293 c0.3779999911785126,0.07400000095367432 0.7670000195503235,0.11100000143051147 1.1670000553131104,0.11100000143051147 c0.5659999847412109,0 1.1139999628067017,-0.07400000095367432 1.6349999904632568,-0.21699999272823334 c-2.8399999141693115,-0.5699999928474426 -4.979000091552734,-3.0799999237060547 -4.979000091552734,-6.084000110626221 c0,-0.027000000700354576 0,-0.05299999937415123 0.0010000000474974513,-0.07999999821186066 c0.8360000252723694,0.4650000035762787 1.7929999828338623,0.7440000176429749 2.811000108718872,0.7770000100135803 c-1.6660000085830688,-1.1150000095367432 -2.760999917984009,-3.01200008392334 -2.760999917984009,-5.165999889373779 c0,-1.1369999647140503 0.3059999942779541,-2.2039999961853027 0.8399999737739563,-3.119999885559082 c3.061000108718872,3.753999948501587 7.633999824523926,6.224999904632568 12.791999816894531,6.482999801635742 c-0.10599999874830246,-0.453000009059906 -0.16099999845027924,-0.9279999732971191 -0.16099999845027924,-1.4140000343322754 c0,-3.4260001182556152 2.7780001163482666,-6.204999923706055 6.205999851226807,-6.204999923706055 c1.784999966621399,0 3.3970000743865967,0.7540000081062317 4.5289998054504395,1.9589999914169312 c1.4140000343322754,-0.2770000100135803 2.742000102996826,-0.7950000166893005 3.940999984741211,-1.50600004196167 c-0.4650000035762787,1.4500000476837158 -1.4479999542236328,2.6659998893737793 -2.7300000190734863,3.433000087738037 c1.2569999694824219,-0.15000000596046448 2.453000068664551,-0.48399999737739563 3.565000057220459,-0.9769999980926514 C39.29500198364258,17.69200086593628 38.242000579833984,18.78499937057495 37.02899932861328,19.65999937057495 z" id="svg_1" class=""/></g></svg>