<svg xmlns="http://www.w3.org/2000/svg" xmlns:xlink="http://www.w3.org/1999/xlink" viewBox="0 0 1650.7 1644"><defs><style>.cls-1{fill:none;}.cls-2{clip-path:url(#clip-path);}.cls-3{fill:#00cbba;}.cls-4{fill:#fefefe;}</style><clipPath id="clip-path" transform="translate(-3.22)"><path class="cls-1" d="M827,0c456.72,0,827,368,827,822s-370.24,822-827,822S0,1276,0,822,370.24,0,827,0"/></clipPath></defs><title>Asset 1</title><g id="Layer_2" data-name="Layer 2"><g id="Layer_1-2" data-name="Layer 1"><g class="cls-2"><path class="cls-3" d="M428.72,587.17c79.09,0,158.45-2,237.81-2,49.95,0,97.58,11.25,137.94,42.67,52.93,41.35,71.78,119.41,44.33,185.9C826.3,868.64,786.6,906.35,730,925.54c-9.92,3.31-12.57,5.62-6.62,15.88,42.34,71.78,90,139.92,145.88,201.78,25.8,28.78,55.24,52.6,95.6,57.23,10.92,1.32,6.28,9.59,7.27,15.22,1.65,9.59-2,15.21-12.24,17.2a206.18,206.18,0,0,1-38.76,3.78c-30.91,0-60.66-7.5-89.25-23-29.11-15.55-48.63-41-68.14-66.49-46.31-61.19-87-126-124.38-192.85-5.37-9.8-11.35-13.25-21.68-13.25l-1.47,0q-2.7.05-5.41.05c-15.13,0-30.5-1.15-45.86-2-1.11-.05-2.18-.09-3.18-.09-5.58,0-9.34,1.33-9.06,10,1.65,64.5-3,129,2.65,193.18,3,33.41,13.23,43.66,46.64,49,10.91,1.65,21.83,4.63,32.75,4.63h.67c18.68,0,11.91,13.67,12.89,22.83.76,8.22-2.56,10-6.72,10-3,0-6.51-1-9.16-1.1q-57.45-2-114.86-2.11-54.13,0-108.09,2.11c-2.59.14-6,1-9,1-4.29,0-7.82-1.76-7.24-9.93.66-9.92-5-23.49,13.56-23.49,3.64,0,7.61-1.32,11.25-2,41.35-6.95,54.25-20.18,54.91-62.52.66-73.43,0-147.86,0-222.29,0-73.43.33-146.54-.33-220,0-10.25-2-20.84-4.3-31.09-4.3-17.53-15.88-28.45-34.07-32.08-9.59-2-19.52-4-29.11-5.29-9.26-1-12.24-4.63-12.57-14.55-.66-15.22,3.31-18.19,19.19-18.19q8.44,0,16.9,0M1058,731.38c-15,0-29.77-1.81-44.16-7-50-17.53-71.12-56.23-76.74-105.52-3.31-21.5-4.63-43.66-3.64-61.19,0-31.09.33-57.56,5.29-83.69,11.46-62.09,56.95-98.74,119-98.74,2.42,0,4.85.06,7.32.17,45.65,2,81.7,19.18,105.85,59.21,6.62,11.25,6,18.19-7.61,21.5-1.65.33-3,1.32-4.63,2-10,4.17-15.81,6.59-20.36,6.59-6.64,0-10.51-5.15-20.32-17.51-14.72-18.71-33.21-27.07-54.18-27.07a93.6,93.6,0,0,0-21.25,2.6c-28.12,6.62-49,32.09-52.59,65.16a613.07,613.07,0,0,0,0,130.33c3,27.46,14.89,49.62,42.67,59.54a91.73,91.73,0,0,0,30.54,5.63c16.18,0,31.62-5.21,45.54-16.88,23.82-19.52,24.15-48,25.47-75.75.33-7.61-6.28-6.28-10.92-6.61-9.92,0-19.85-.15-29.77-.15-5,0-9.92,0-14.88.15l-1.21,0c-8.34,0-11.37-3.41-11.69-12.26-1.3-33.09-1.64-33.41,29.24-33.41h1.86c17.2,0,34.55.15,51.85.15q13,0,25.89-.15c8.6,0,11.91,2.65,11.91,11.25-.66,29.77,1.33,59.54-4.63,89-10.59,50.94-47.63,86-99.57,91.3-8.12.81-16.24,1.34-24.31,1.34M827,0C395,0,40.43,329.19,3.22,748.93q0,73.06,0,146.14C40.43,1314.81,395,1644,827,1644c456.72,0,827-368,827-822S1283.68,0,827,0" transform="translate(-3.22)"/><path class="cls-4" d="M621.81,894.36c-18.67,0-37.25-1.14-55.83-1.57-9.92-.33-13.23-4.3-12.9-14.23.33-38.37,0-77.07,0-115.44,0-38.7.33-77.07-.33-115.77,0-9.59,2.65-13.89,12.9-13.89,18.08-.55,36.16-1.52,54.23-1.52a326.25,326.25,0,0,1,43,2.51c75.75,10.26,115.78,61.2,109.16,137.94-6,67.48-52.92,114.45-120.4,120.74-10,.92-19.93,1.24-29.84,1.24m44.72-309.2c-79.36,0-158.72,2-237.81,2q-8.45,0-16.9,0c-15.88,0-19.85,3-19.19,18.19.33,9.92,3.31,13.56,12.57,14.55,9.59,1.32,19.52,3.31,29.11,5.29,18.19,3.64,29.77,14.55,34.07,32.08,2.31,10.26,4.3,20.84,4.3,31.09.66,73.44.33,146.54.33,220,0,74.43.66,148.85,0,222.29-.66,42.34-13.56,55.57-54.91,62.52-3.64.66-7.61,2-11.25,2-18.53,0-12.9,13.56-13.56,23.49-.58,8.17,3,9.93,7.24,9.93,3,0,6.38-.87,9-1q54-2.17,108.09-2.11,57.38,0,114.86,2.11c2.65.14,6.13,1.1,9.16,1.1,4.16,0,7.48-1.81,6.72-10-1-9.16,5.79-22.83-12.89-22.83h-.67c-10.92,0-21.83-3-32.75-4.63-33.41-5.29-43.66-15.54-46.64-49-5.62-64.17-1-128.67-2.65-193.18-.28-8.69,3.48-10,9.06-10,1,0,2.07,0,3.18.09,15.37.89,30.73,2,45.86,2q2.71,0,5.41-.05l1.47,0c10.33,0,16.31,3.46,21.68,13.25,37.38,66.82,78.07,131.65,124.38,192.85,19.52,25.47,39,50.94,68.14,66.49,28.59,15.47,58.34,23,89.25,23a206.18,206.18,0,0,0,38.76-3.78c10.25-2,13.89-7.61,12.24-17.2-1-5.62,3.64-13.89-7.27-15.22-40.36-4.63-69.8-28.45-95.6-57.23-55.9-61.85-103.53-130-145.88-201.78-6-10.25-3.31-12.57,6.62-15.88,56.56-19.18,96.26-56.9,118.75-111.81,27.45-66.49,8.6-144.55-44.33-185.9-40.36-31.42-88-42.67-137.94-42.67" transform="translate(-3.22)"/><path class="cls-4" d="M1057.81,375.27c-62.09,0-107.58,36.65-119,98.74-5,26.13-5.29,52.6-5.29,83.69-1,17.53.33,39.69,3.64,61.19,5.62,49.29,26.79,88,76.74,105.52,14.39,5.15,29.2,7,44.16,7,8.07,0,16.2-.53,24.31-1.34,51.93-5.29,89-40.36,99.57-91.3,6-29.44,4-59.21,4.63-89,0-8.6-3.31-11.25-11.91-11.25s-17.24.15-25.89.15c-17.3,0-34.65-.15-51.85-.15H1095c-30.88,0-30.54.32-29.24,33.41.32,8.85,3.35,12.26,11.69,12.26l1.21,0c5-.11,9.92-.15,14.88-.15,9.92,0,19.85.15,29.77.15,4.63.33,11.25-1,10.92,6.61-1.32,27.79-1.65,56.23-25.47,75.75-13.92,11.67-29.36,16.88-45.54,16.88a91.73,91.73,0,0,1-30.54-5.63c-27.78-9.92-39.69-32.09-42.67-59.54a613.07,613.07,0,0,1,0-130.33c3.64-33.08,24.48-58.55,52.59-65.16a93.6,93.6,0,0,1,21.25-2.6c21,0,39.46,8.36,54.18,27.07,9.81,12.36,13.68,17.51,20.32,17.51,4.55,0,10.4-2.42,20.36-6.59,1.65-.66,3-1.65,4.63-2,13.56-3.31,14.22-10.26,7.61-21.5-24.15-40-60.2-57.23-105.85-59.21-2.47-.11-4.9-.17-7.32-.17" transform="translate(-3.22)"/><path class="cls-3" d="M619.88,631.93c-18.08,0-36.16,1-54.23,1.52-10.25,0-12.9,4.3-12.9,13.89.66,38.7.33,77.07.33,115.77,0,38.37.33,77.07,0,115.44-.33,9.92,3,13.89,12.9,14.23,18.58.43,37.16,1.57,55.83,1.57,9.91,0,19.86-.32,29.84-1.24,67.48-6.29,114.45-53.25,120.4-120.74,6.62-76.74-33.41-127.68-109.16-137.94a326.25,326.25,0,0,0-43-2.51" transform="translate(-3.22)"/></g></g></g></svg>